<svg xmlns="http://www.w3.org/2000/svg" viewBox="0 0 1200 630" width="1200" height="630"><rect width="1200" height="630" fill="#a994ff"/><g transform="translate(192 43) scale(1.7)"><g><rect x="51" y="34" width="250" height="150" rx="16" fill="#f3f5f2" stroke="#0d1210" stroke-width="3"/><rect x="51" y="34" width="250" height="30" rx="16" fill="#0d1210"/><rect x="51" y="48" width="250" height="16" fill="#0d1210"/><circle cx="69" cy="49" r="4.5" fill="#ff6b4a"/><circle cx="85" cy="49" r="4.5" fill="#f4b73f"/><circle cx="101" cy="49" r="4.5" fill="#9bd54a"/><rect x="71" y="80" width="178.9" height="10" rx="5" fill="#0d1210" opacity="0.95"/><rect x="71" y="102" width="97.9" height="10" rx="5" fill="#0d1210" opacity="0.3"/><rect x="71" y="124" width="83.7" height="10" rx="5" fill="#0d1210" opacity="0.3"/><rect x="71" y="146" width="60.2" height="10" rx="5" fill="#0d1210" opacity="0.3"/><rect x="71" y="168" width="171.4" height="10" rx="5" fill="#0d1210" opacity="0.3"/></g><g><rect x="137.4" y="98" width="250" height="150" rx="16" fill="#ffffff" stroke="#0d1210" stroke-width="3"/><rect x="137.4" y="98" width="250" height="30" rx="16" fill="#0d1210"/><rect x="137.4" y="112" width="250" height="16" fill="#0d1210"/><circle cx="155.4" cy="113" r="4.5" fill="#ff6b4a"/><circle cx="171.4" cy="113" r="4.5" fill="#f4b73f"/><circle cx="187.4" cy="113" r="4.5" fill="#9bd54a"/><rect x="157.4" y="144" width="164.2" height="10" rx="5" fill="#0d1210" opacity="0.95"/><rect x="157.4" y="166" width="66" height="10" rx="5" fill="#0d1210" opacity="0.3"/><rect x="157.4" y="188" width="84.7" height="10" rx="5" fill="#0d1210" opacity="0.3"/><rect x="157.4" y="210" width="108.9" height="10" rx="5" fill="#0d1210" opacity="0.3"/></g><g><rect x="129.1" y="161.3" width="250" height="120" rx="16" fill="#0d1210" /><rect x="129.1" y="161.3" width="250" height="30" rx="16" fill="#26332e"/><rect x="129.1" y="175.3" width="250" height="16" fill="#26332e"/><circle cx="147.1" cy="176.3" r="4.5" fill="#ff6b4a"/><circle cx="163.1" cy="176.3" r="4.5" fill="#f4b73f"/><circle cx="179.1" cy="176.3" r="4.5" fill="#9bd54a"/><rect x="149.1" y="207.3" width="80" height="10" rx="5" fill="#f3f5f2" opacity="0.95"/><rect x="149.1" y="229.3" width="160.6" height="10" rx="5" fill="#f3f5f2" opacity="0.3"/><rect x="149.1" y="251.3" width="176.3" height="10" rx="5" fill="#f3f5f2" opacity="0.3"/><rect x="149.1" y="273.3" width="163.7" height="10" rx="5" fill="#f3f5f2" opacity="0.3"/><rect x="149.1" y="295.3" width="89.8" height="10" rx="5" fill="#f3f5f2" opacity="0.3"/></g><line x1="330" y1="40" x2="330" y2="300" stroke="#0d1210" stroke-width="2.5" stroke-dasharray="2 8" stroke-linecap="round" opacity="0.6"/><line x1="440" y1="40" x2="440" y2="300" stroke="#0d1210" stroke-width="2.5" stroke-dasharray="2 8" stroke-linecap="round" opacity="0.6"/><path pathLength="1" d="M330 64.6L428 86.6" stroke="#0d1210" stroke-width="3.5" fill="none" stroke-linecap="round"/><rect x="430" y="78.6" width="20" height="16" rx="5" fill="#0d1210"/><path pathLength="1" d="M440 114.6L342 136.6" stroke="#0d1210" stroke-width="3.5" fill="none" stroke-linecap="round"/><rect x="320" y="128.6" width="20" height="16" rx="5" fill="#0d1210"/><path pathLength="1" d="M330 163.3L428 185.3" stroke="#0d1210" stroke-width="3.5" fill="none" stroke-linecap="round"/><rect x="430" y="177.3" width="20" height="16" rx="5" fill="#ff6b4a"/><path pathLength="1" d="M440 205L342 227" stroke="#0d1210" stroke-width="3.5" fill="none" stroke-linecap="round"/><rect x="320" y="219" width="20" height="16" rx="5" fill="#0d1210"/><path pathLength="1" d="M330 251.1L428 273.1" stroke="#0d1210" stroke-width="3.5" fill="none" stroke-linecap="round"/><rect x="430" y="265.1" width="20" height="16" rx="5" fill="#0d1210"/></g></svg>
