<svg xmlns="http://www.w3.org/2000/svg" viewBox="0 0 1200 630" width="1200" height="630"><rect width="1200" height="630" fill="#a994ff"/><g transform="translate(192 43) scale(1.7)"><g><rect x="49.6" y="34" width="250" height="150" rx="16" fill="#f3f5f2" stroke="#0d1210" stroke-width="3"/><rect x="49.6" y="34" width="250" height="30" rx="16" fill="#0d1210"/><rect x="49.6" y="48" width="250" height="16" fill="#0d1210"/><circle cx="67.6" cy="49" r="4.5" fill="#ff6b4a"/><circle cx="83.6" cy="49" r="4.5" fill="#f4b73f"/><circle cx="99.6" cy="49" r="4.5" fill="#9bd54a"/><rect x="69.6" y="80" width="62.7" height="10" rx="5" fill="#0d1210" opacity="0.95"/><rect x="69.6" y="102" width="125.1" height="10" rx="5" fill="#0d1210" opacity="0.3"/><rect x="69.6" y="124" width="71.9" height="10" rx="5" fill="#0d1210" opacity="0.3"/><rect x="69.6" y="146" width="155.1" height="10" rx="5" fill="#0d1210" opacity="0.3"/><rect x="69.6" y="168" width="69.2" height="10" rx="5" fill="#0d1210" opacity="0.3"/></g><g><rect x="146.9" y="98" width="250" height="150" rx="16" fill="#ffffff" stroke="#0d1210" stroke-width="3"/><rect x="146.9" y="98" width="250" height="30" rx="16" fill="#0d1210"/><rect x="146.9" y="112" width="250" height="16" fill="#0d1210"/><circle cx="164.9" cy="113" r="4.5" fill="#ff6b4a"/><circle cx="180.9" cy="113" r="4.5" fill="#f4b73f"/><circle cx="196.9" cy="113" r="4.5" fill="#9bd54a"/><rect x="166.9" y="144" width="164.3" height="10" rx="5" fill="#0d1210" opacity="0.95"/><rect x="166.9" y="166" width="115.2" height="10" rx="5" fill="#0d1210" opacity="0.3"/><rect x="166.9" y="188" width="79.1" height="10" rx="5" fill="#0d1210" opacity="0.3"/><rect x="166.9" y="210" width="187.2" height="10" rx="5" fill="#0d1210" opacity="0.3"/><rect x="166.9" y="232" width="145.7" height="10" rx="5" fill="#0d1210" opacity="0.3"/></g><g><rect x="111.7" y="165.8" width="250" height="120" rx="16" fill="#0d1210" /><rect x="111.7" y="165.8" width="250" height="30" rx="16" fill="#26332e"/><rect x="111.7" y="179.8" width="250" height="16" fill="#26332e"/><circle cx="129.7" cy="180.8" r="4.5" fill="#ff6b4a"/><circle cx="145.7" cy="180.8" r="4.5" fill="#f4b73f"/><circle cx="161.7" cy="180.8" r="4.5" fill="#9bd54a"/><rect x="131.7" y="211.8" width="108.5" height="10" rx="5" fill="#f3f5f2" opacity="0.95"/><rect x="131.7" y="233.8" width="81.2" height="10" rx="5" fill="#f3f5f2" opacity="0.3"/><rect x="131.7" y="255.8" width="123.4" height="10" rx="5" fill="#f3f5f2" opacity="0.3"/><rect x="131.7" y="277.8" width="189.7" height="10" rx="5" fill="#f3f5f2" opacity="0.3"/></g><line x1="330" y1="40" x2="330" y2="300" stroke="#0d1210" stroke-width="2.5" stroke-dasharray="2 8" stroke-linecap="round" opacity="0.6"/><line x1="440" y1="40" x2="440" y2="300" stroke="#0d1210" stroke-width="2.5" stroke-dasharray="2 8" stroke-linecap="round" opacity="0.6"/><path pathLength="1" d="M330 66.9L428 88.9" stroke="#0d1210" stroke-width="3.5" fill="none" stroke-linecap="round"/><rect x="430" y="80.9" width="20" height="16" rx="5" fill="#0d1210"/><path pathLength="1" d="M440 117.8L342 139.8" stroke="#0d1210" stroke-width="3.5" fill="none" stroke-linecap="round"/><rect x="320" y="131.8" width="20" height="16" rx="5" fill="#0d1210"/><path pathLength="1" d="M330 159.9L428 181.9" stroke="#0d1210" stroke-width="3.5" fill="none" stroke-linecap="round"/><rect x="430" y="173.9" width="20" height="16" rx="5" fill="#ff6b4a"/><path pathLength="1" d="M440 202.6L342 224.6" stroke="#0d1210" stroke-width="3.5" fill="none" stroke-linecap="round"/><rect x="320" y="216.6" width="20" height="16" rx="5" fill="#0d1210"/><path pathLength="1" d="M330 255.9L428 277.9" stroke="#0d1210" stroke-width="3.5" fill="none" stroke-linecap="round"/><rect x="430" y="269.9" width="20" height="16" rx="5" fill="#0d1210"/></g></svg>
