<svg xmlns="http://www.w3.org/2000/svg" viewBox="0 0 1200 630" width="1200" height="630"><rect width="1200" height="630" fill="#5aaaf5"/><g transform="translate(192 43) scale(1.7)"><rect x="59" y="277.5" width="28.9" height="14.5" rx="4" fill="#0d1210" opacity="0.88"/><rect x="93.9" y="275.6" width="28.9" height="16.4" rx="4" fill="#0d1210" opacity="0.88"/><rect x="128.8" y="267.6" width="28.9" height="24.4" rx="4" fill="#0d1210" opacity="0.88"/><rect x="163.7" y="255.6" width="28.9" height="36.4" rx="4" fill="#0d1210" opacity="0.88"/><rect x="198.6" y="247.6" width="28.9" height="44.4" rx="4" fill="#0d1210" opacity="0.88"/><rect x="233.5" y="225.9" width="28.9" height="66.1" rx="4" fill="#0d1210" opacity="0.88"/><rect x="268.5" y="247.9" width="28.9" height="44.1" rx="4" fill="#0d1210" opacity="0.88"/><rect x="303.4" y="257.4" width="28.9" height="34.6" rx="4" fill="#0d1210" opacity="0.88"/><rect x="338.3" y="268.7" width="28.9" height="23.3" rx="4" fill="#0d1210" opacity="0.88"/><rect x="373.2" y="275.7" width="28.9" height="16.3" rx="4" fill="#0d1210" opacity="0.88"/><rect x="408.1" y="277.4" width="28.9" height="14.6" rx="4" fill="#0d1210" opacity="0.88"/><line x1="231" y1="154.3" x2="231" y2="166.2" stroke="#0d1210" stroke-width="1.6" opacity="0.5"/><circle cx="231" cy="154.3" r="6" fill="#0d1210" /><circle cx="311.9" cy="193.3" r="6" fill="#f3f5f2" stroke="#0d1210" stroke-width="2"/><circle cx="348" cy="214.4" r="6" fill="#0d1210" /><line x1="398.9" y1="220" x2="398.9" y2="204" stroke="#0d1210" stroke-width="1.6" opacity="0.5"/><circle cx="398.9" cy="220" r="6" fill="#f3f5f2" stroke="#0d1210" stroke-width="2"/><circle cx="145.5" cy="172.9" r="6" fill="#0d1210" /><circle cx="373.3" cy="180.2" r="6" fill="#f3f5f2" stroke="#0d1210" stroke-width="2"/><line x1="247.9" y1="153.7" x2="247.9" y2="170" stroke="#0d1210" stroke-width="1.6" opacity="0.5"/><circle cx="247.9" cy="153.7" r="6" fill="#0d1210" /><circle cx="107" cy="152.8" r="6" fill="#f3f5f2" stroke="#0d1210" stroke-width="2"/><circle cx="291.2" cy="179.5" r="6" fill="#0d1210" /><line x1="225.7" y1="178.2" x2="225.7" y2="165" stroke="#0d1210" stroke-width="1.6" opacity="0.5"/><circle cx="225.7" cy="178.2" r="6" fill="#f3f5f2" stroke="#0d1210" stroke-width="2"/><circle cx="334.8" cy="158.1" r="6" fill="#0d1210" /><circle cx="198.2" cy="159.7" r="6" fill="#f3f5f2" stroke="#0d1210" stroke-width="2"/><line x1="86.1" y1="143.4" x2="86.1" y2="133.5" stroke="#0d1210" stroke-width="1.6" opacity="0.5"/><circle cx="86.1" cy="143.4" r="6" fill="#0d1210" /><circle cx="406.2" cy="184.1" r="6" fill="#f3f5f2" stroke="#0d1210" stroke-width="2"/><circle cx="190.7" cy="157.1" r="6" fill="#0d1210" /><line x1="351.3" y1="162.1" x2="351.3" y2="193.3" stroke="#0d1210" stroke-width="1.6" opacity="0.5"/><circle cx="351.3" cy="162.1" r="6" fill="#f3f5f2" stroke="#0d1210" stroke-width="2"/><circle cx="400.5" cy="219.2" r="6" fill="#0d1210" /><circle cx="336.1" cy="214.1" r="6" fill="#f3f5f2" stroke="#0d1210" stroke-width="2"/><line x1="109.6" y1="121.1" x2="109.6" y2="138.8" stroke="#0d1210" stroke-width="1.6" opacity="0.5"/><circle cx="109.6" cy="121.1" r="6" fill="#0d1210" /><circle cx="323.2" cy="185.2" r="6" fill="#f3f5f2" stroke="#0d1210" stroke-width="2"/><circle cx="359.2" cy="201.9" r="6" fill="#0d1210" /><line x1="178.9" y1="129.6" x2="178.9" y2="154.4" stroke="#0d1210" stroke-width="1.6" opacity="0.5"/><circle cx="178.9" cy="129.6" r="6" fill="#f3f5f2" stroke="#0d1210" stroke-width="2"/><circle cx="115.7" cy="148.8" r="6" fill="#0d1210" /><circle cx="326.1" cy="218.1" r="6" fill="#f3f5f2" stroke="#0d1210" stroke-width="2"/><line x1="307.4" y1="196.2" x2="307.4" y2="183.4" stroke="#0d1210" stroke-width="1.6" opacity="0.5"/><circle cx="307.4" cy="196.2" r="6" fill="#0d1210" /><circle cx="132.2" cy="142.4" r="6" fill="#f3f5f2" stroke="#0d1210" stroke-width="2"/><circle cx="116.7" cy="164.9" r="6" fill="#0d1210" /><line x1="314.6" y1="220" x2="314.6" y2="185" stroke="#0d1210" stroke-width="1.6" opacity="0.5"/><circle cx="314.6" cy="220" r="6" fill="#f3f5f2" stroke="#0d1210" stroke-width="2"/><circle cx="275.1" cy="181.2" r="6" fill="#0d1210" /><circle cx="332.9" cy="186.5" r="6" fill="#f3f5f2" stroke="#0d1210" stroke-width="2"/><line x1="256.9" y1="135" x2="256.9" y2="172" stroke="#0d1210" stroke-width="1.6" opacity="0.5"/><circle cx="256.9" cy="135" r="6" fill="#0d1210" /><circle cx="332.8" cy="191.1" r="6" fill="#f3f5f2" stroke="#0d1210" stroke-width="2"/><circle cx="75.6" cy="210" r="8" fill="#ff6b4a" /><line x1="318.6" y1="216.1" x2="318.6" y2="185.9" stroke="#0d1210" stroke-width="1.6" opacity="0.5"/><circle cx="318.6" cy="216.1" r="6" fill="#f3f5f2" stroke="#0d1210" stroke-width="2"/><line pathLength="1" x1="56" y1="126.7" x2="440" y2="213.3" stroke="#0d1210" stroke-width="5" stroke-linecap="round"/></g></svg>
