<svg xmlns="http://www.w3.org/2000/svg" viewBox="0 0 1200 630" width="1200" height="630"><rect width="1200" height="630" fill="#5aaaf5"/><g transform="translate(192 43) scale(1.7)"><rect x="59" y="277.5" width="28.9" height="14.5" rx="4" fill="#0d1210" opacity="0.88"/><rect x="93.9" y="275.4" width="28.9" height="16.6" rx="4" fill="#0d1210" opacity="0.88"/><rect x="128.8" y="269.1" width="28.9" height="22.9" rx="4" fill="#0d1210" opacity="0.88"/><rect x="163.7" y="259" width="28.9" height="33" rx="4" fill="#0d1210" opacity="0.88"/><rect x="198.6" y="246.3" width="28.9" height="45.7" rx="4" fill="#0d1210" opacity="0.88"/><rect x="233.5" y="228.1" width="28.9" height="63.9" rx="4" fill="#0d1210" opacity="0.88"/><rect x="268.5" y="235.2" width="28.9" height="56.8" rx="4" fill="#0d1210" opacity="0.88"/><rect x="303.4" y="257.1" width="28.9" height="34.9" rx="4" fill="#0d1210" opacity="0.88"/><rect x="338.3" y="268.3" width="28.9" height="23.7" rx="4" fill="#0d1210" opacity="0.88"/><rect x="373.2" y="274.8" width="28.9" height="17.2" rx="4" fill="#0d1210" opacity="0.88"/><rect x="408.1" y="277.5" width="28.9" height="14.5" rx="4" fill="#0d1210" opacity="0.88"/><line x1="416.2" y1="126.8" x2="416.2" y2="117.9" stroke="#0d1210" stroke-width="1.6" opacity="0.5"/><circle cx="416.2" cy="126.8" r="6" fill="#0d1210" /><circle cx="368.7" cy="140.8" r="6" fill="#f3f5f2" stroke="#0d1210" stroke-width="2"/><circle cx="395.4" cy="149" r="6" fill="#0d1210" /><line x1="93.4" y1="187.9" x2="93.4" y2="178.5" stroke="#0d1210" stroke-width="1.6" opacity="0.5"/><circle cx="93.4" cy="187.9" r="6" fill="#f3f5f2" stroke="#0d1210" stroke-width="2"/><circle cx="320.8" cy="117.2" r="6" fill="#0d1210" /><circle cx="253.9" cy="174.1" r="6" fill="#f3f5f2" stroke="#0d1210" stroke-width="2"/><line x1="76.9" y1="150.3" x2="76.9" y2="181.6" stroke="#0d1210" stroke-width="1.6" opacity="0.5"/><circle cx="76.9" cy="150.3" r="6" fill="#0d1210" /><circle cx="99.9" cy="196.9" r="6" fill="#f3f5f2" stroke="#0d1210" stroke-width="2"/><circle cx="350.1" cy="164.9" r="6" fill="#0d1210" /><line x1="252.8" y1="148.3" x2="252.8" y2="148.6" stroke="#0d1210" stroke-width="1.6" opacity="0.5"/><circle cx="252.8" cy="148.3" r="6" fill="#f3f5f2" stroke="#0d1210" stroke-width="2"/><circle cx="300.6" cy="119.3" r="6" fill="#0d1210" /><circle cx="75.4" cy="172.7" r="6" fill="#f3f5f2" stroke="#0d1210" stroke-width="2"/><line x1="83.5" y1="186.2" x2="83.5" y2="180.4" stroke="#0d1210" stroke-width="1.6" opacity="0.5"/><circle cx="83.5" cy="186.2" r="6" fill="#0d1210" /><circle cx="373.6" cy="115.7" r="6" fill="#f3f5f2" stroke="#0d1210" stroke-width="2"/><circle cx="366.9" cy="150.5" r="6" fill="#0d1210" /><line x1="334.8" y1="161.1" x2="334.8" y2="133.2" stroke="#0d1210" stroke-width="1.6" opacity="0.5"/><circle cx="334.8" cy="161.1" r="6" fill="#f3f5f2" stroke="#0d1210" stroke-width="2"/><circle cx="235" cy="170.9" r="6" fill="#0d1210" /><circle cx="232.7" cy="171.9" r="6" fill="#f3f5f2" stroke="#0d1210" stroke-width="2"/><line x1="254.2" y1="137.6" x2="254.2" y2="148.3" stroke="#0d1210" stroke-width="1.6" opacity="0.5"/><circle cx="254.2" cy="137.6" r="6" fill="#0d1210" /><circle cx="124.4" cy="174.2" r="6" fill="#f3f5f2" stroke="#0d1210" stroke-width="2"/><circle cx="257.4" cy="135.6" r="6" fill="#0d1210" /><line x1="101.6" y1="206.5" x2="101.6" y2="177" stroke="#0d1210" stroke-width="1.6" opacity="0.5"/><circle cx="101.6" cy="206.5" r="6" fill="#f3f5f2" stroke="#0d1210" stroke-width="2"/><circle cx="358.8" cy="146.9" r="6" fill="#0d1210" /><circle cx="86.2" cy="198.1" r="6" fill="#f3f5f2" stroke="#0d1210" stroke-width="2"/><circle cx="95.4" cy="210" r="8" fill="#ff6b4a" /><circle cx="330.9" cy="116" r="6" fill="#f3f5f2" stroke="#0d1210" stroke-width="2"/><circle cx="91.9" cy="200.3" r="6" fill="#0d1210" /><line x1="185.4" y1="122.4" x2="185.4" y2="161.2" stroke="#0d1210" stroke-width="1.6" opacity="0.5"/><circle cx="185.4" cy="122.4" r="6" fill="#f3f5f2" stroke="#0d1210" stroke-width="2"/><circle cx="398.8" cy="130.3" r="6" fill="#0d1210" /><circle cx="327.1" cy="159.3" r="6" fill="#f3f5f2" stroke="#0d1210" stroke-width="2"/><line x1="130.1" y1="194.8" x2="130.1" y2="171.6" stroke="#0d1210" stroke-width="1.6" opacity="0.5"/><circle cx="130.1" cy="194.8" r="6" fill="#0d1210" /><circle cx="257.8" cy="172.5" r="6" fill="#f3f5f2" stroke="#0d1210" stroke-width="2"/><circle cx="196.6" cy="159.4" r="6" fill="#0d1210" /><line x1="135.8" y1="204.1" x2="135.8" y2="170.5" stroke="#0d1210" stroke-width="1.6" opacity="0.5"/><circle cx="135.8" cy="204.1" r="6" fill="#f3f5f2" stroke="#0d1210" stroke-width="2"/><line pathLength="1" x1="56" y1="185.5" x2="440" y2="113.5" stroke="#0d1210" stroke-width="5" stroke-linecap="round"/></g></svg>
