<svg xmlns="http://www.w3.org/2000/svg" viewBox="0 0 1200 630" width="1200" height="630"><rect width="1200" height="630" fill="#5aaaf5"/><g transform="translate(192 43) scale(1.7)"><rect x="59" y="277.5" width="28.9" height="14.5" rx="4" fill="#0d1210" opacity="0.88"/><rect x="93.9" y="274.8" width="28.9" height="17.2" rx="4" fill="#0d1210" opacity="0.88"/><rect x="128.8" y="267" width="28.9" height="25" rx="4" fill="#0d1210" opacity="0.88"/><rect x="163.7" y="255.9" width="28.9" height="36.1" rx="4" fill="#0d1210" opacity="0.88"/><rect x="198.6" y="248.3" width="28.9" height="43.7" rx="4" fill="#0d1210" opacity="0.88"/><rect x="233.5" y="233.4" width="28.9" height="58.6" rx="4" fill="#0d1210" opacity="0.88"/><rect x="268.5" y="243.8" width="28.9" height="48.2" rx="4" fill="#0d1210" opacity="0.88"/><rect x="303.4" y="254.4" width="28.9" height="37.6" rx="4" fill="#0d1210" opacity="0.88"/><rect x="338.3" y="267.7" width="28.9" height="24.3" rx="4" fill="#0d1210" opacity="0.88"/><rect x="373.2" y="275.2" width="28.9" height="16.8" rx="4" fill="#0d1210" opacity="0.88"/><rect x="408.1" y="277.4" width="28.9" height="14.6" rx="4" fill="#0d1210" opacity="0.88"/><line x1="385" y1="152.3" x2="385" y2="184.1" stroke="#0d1210" stroke-width="1.6" opacity="0.5"/><circle cx="385" cy="152.3" r="6" fill="#0d1210" /><circle cx="223.2" cy="201.3" r="6" fill="#f3f5f2" stroke="#0d1210" stroke-width="2"/><circle cx="382.4" cy="149.7" r="6" fill="#0d1210" /><circle cx="401.9" cy="210" r="8" fill="#ff6b4a" /><circle cx="336.9" cy="205.2" r="6" fill="#0d1210" /><circle cx="228.3" cy="188.1" r="6" fill="#f3f5f2" stroke="#0d1210" stroke-width="2"/><line x1="114.2" y1="186.7" x2="114.2" y2="154.9" stroke="#0d1210" stroke-width="1.6" opacity="0.5"/><circle cx="114.2" cy="186.7" r="6" fill="#0d1210" /><circle cx="199.2" cy="131.7" r="6" fill="#f3f5f2" stroke="#0d1210" stroke-width="2"/><circle cx="117.8" cy="122.9" r="6" fill="#0d1210" /><line x1="389.3" y1="199" x2="389.3" y2="184.6" stroke="#0d1210" stroke-width="1.6" opacity="0.5"/><circle cx="389.3" cy="199" r="6" fill="#f3f5f2" stroke="#0d1210" stroke-width="2"/><circle cx="265.1" cy="134.8" r="6" fill="#0d1210" /><circle cx="250.2" cy="199.6" r="6" fill="#f3f5f2" stroke="#0d1210" stroke-width="2"/><line x1="211.3" y1="185.9" x2="211.3" y2="165.4" stroke="#0d1210" stroke-width="1.6" opacity="0.5"/><circle cx="211.3" cy="185.9" r="6" fill="#0d1210" /><circle cx="179.5" cy="130.2" r="6" fill="#f3f5f2" stroke="#0d1210" stroke-width="2"/><circle cx="107.2" cy="146.5" r="6" fill="#0d1210" /><line x1="209.7" y1="159.2" x2="209.7" y2="165.2" stroke="#0d1210" stroke-width="1.6" opacity="0.5"/><circle cx="209.7" cy="159.2" r="6" fill="#f3f5f2" stroke="#0d1210" stroke-width="2"/><circle cx="367.8" cy="203.1" r="6" fill="#0d1210" /><circle cx="214.2" cy="142.1" r="6" fill="#f3f5f2" stroke="#0d1210" stroke-width="2"/><line x1="385.5" y1="220" x2="385.5" y2="184.2" stroke="#0d1210" stroke-width="1.6" opacity="0.5"/><circle cx="385.5" cy="220" r="6" fill="#0d1210" /><circle cx="150.4" cy="149.1" r="6" fill="#f3f5f2" stroke="#0d1210" stroke-width="2"/><circle cx="169.9" cy="198.7" r="6" fill="#0d1210" /><line x1="276.8" y1="151.4" x2="276.8" y2="172.4" stroke="#0d1210" stroke-width="1.6" opacity="0.5"/><circle cx="276.8" cy="151.4" r="6" fill="#f3f5f2" stroke="#0d1210" stroke-width="2"/><circle cx="112.8" cy="157.1" r="6" fill="#0d1210" /><circle cx="249.5" cy="140.2" r="6" fill="#f3f5f2" stroke="#0d1210" stroke-width="2"/><line x1="140.8" y1="127.1" x2="140.8" y2="157.7" stroke="#0d1210" stroke-width="1.6" opacity="0.5"/><circle cx="140.8" cy="127.1" r="6" fill="#0d1210" /><circle cx="277.2" cy="144.8" r="6" fill="#f3f5f2" stroke="#0d1210" stroke-width="2"/><circle cx="349" cy="158.1" r="6" fill="#0d1210" /><line x1="176.9" y1="195.6" x2="176.9" y2="161.6" stroke="#0d1210" stroke-width="1.6" opacity="0.5"/><circle cx="176.9" cy="195.6" r="6" fill="#f3f5f2" stroke="#0d1210" stroke-width="2"/><circle cx="207.2" cy="170.6" r="6" fill="#0d1210" /><circle cx="310.2" cy="152.3" r="6" fill="#f3f5f2" stroke="#0d1210" stroke-width="2"/><line x1="377" y1="154.2" x2="377" y2="183.3" stroke="#0d1210" stroke-width="1.6" opacity="0.5"/><circle cx="377" cy="154.2" r="6" fill="#0d1210" /><circle cx="413.7" cy="220" r="6" fill="#f3f5f2" stroke="#0d1210" stroke-width="2"/><circle cx="132.1" cy="129.9" r="6" fill="#0d1210" /><line x1="407.1" y1="197.9" x2="407.1" y2="186.5" stroke="#0d1210" stroke-width="1.6" opacity="0.5"/><circle cx="407.1" cy="197.9" r="6" fill="#f3f5f2" stroke="#0d1210" stroke-width="2"/><line pathLength="1" x1="56" y1="148.6" x2="440" y2="190.1" stroke="#0d1210" stroke-width="5" stroke-linecap="round"/></g></svg>
