<svg xmlns="http://www.w3.org/2000/svg" viewBox="0 0 1200 630" width="1200" height="630"><rect width="1200" height="630" fill="#f26da6"/><g transform="translate(192 43) scale(1.7)"><circle cx="44.4" cy="65.8" r="4.2" fill="#0d1210" opacity="0.5"/><circle cx="69.2" cy="161.9" r="4.2" fill="#0d1210" opacity="0.5"/><circle cx="160.6" cy="33.1" r="4.2" fill="#0d1210" opacity="0.5"/><circle cx="94" cy="258" r="4.2" fill="#0d1210" opacity="0.5"/><circle cx="185.4" cy="129.2" r="4.2" fill="#0d1210" opacity="0.5"/><circle cx="210.2" cy="225.3" r="4.2" fill="#0d1210" opacity="0.5"/><circle cx="301.6" cy="96.5" r="4.2" fill="#0d1210" opacity="0.5"/><circle cx="326.4" cy="192.6" r="4.2" fill="#0d1210" opacity="0.5"/><circle cx="417.8" cy="63.7" r="4.2" fill="#0d1210" opacity="0.5"/><circle cx="351.2" cy="288.7" r="4.2" fill="#0d1210" opacity="0.5"/><circle cx="442.6" cy="159.9" r="4.2" fill="#0d1210" opacity="0.5"/><line x1="-242" y1="422.7" x2="654" y2="-16.5" stroke="#0d1210" stroke-width="2.5" stroke-dasharray="2 9" stroke-linecap="round" opacity="0.75"/><line x1="230.3" y1="594" x2="-133.1" y2="-302" stroke="#0d1210" stroke-width="2.5" stroke-dasharray="2 9" stroke-linecap="round" opacity="0.75"/><polygon points="94,258 206,258 206,146 94,146" fill="none" stroke="#0d1210" stroke-width="3" stroke-dasharray="7 8"/><polygon points="94,258 210.2,225.3 301.6,96.5 185.4,129.2" fill="#f3f5f2" opacity="0.96"/><polygon pathLength="1" points="94,258 210.2,225.3 301.6,96.5 185.4,129.2" fill="none" stroke="#0d1210" stroke-width="4.5" stroke-linejoin="round"/><line pathLength="1" x1="94" y1="258" x2="205.4" y2="226.6" stroke="#ff6b4a" stroke-width="7" stroke-linecap="round"/><polygon points="210.2,225.3 197.1,236.2 193.4,222.8" fill="#ff6b4a"/><line pathLength="1" x1="94" y1="258" x2="182.5" y2="133.3" stroke="#0d1210" stroke-width="7" stroke-linecap="round"/><polygon points="185.4,129.2 182.1,145.9 170.7,137.8" fill="#0d1210"/><circle cx="94" cy="258" r="8" fill="#0d1210"/></g></svg>
