<svg xmlns="http://www.w3.org/2000/svg" viewBox="0 0 1200 630" width="1200" height="630">
  <rect width="1200" height="630" fill="#0d1117"/>
  <rect x="0" y="0" width="1200" height="630" fill="#151b23" opacity="0.55"/>
  <g><line x1="292" y1="213" x2="154" y2="216" stroke="rgba(20,184,166,0.11)" stroke-width="1.5"/><line x1="1034" y1="212" x2="898" y2="213" stroke="rgba(20,184,166,0.21)" stroke-width="1.5"/><line x1="1034" y1="212" x2="1042" y2="235" stroke="rgba(20,184,166,0.15)" stroke-width="1.5"/><line x1="1034" y1="212" x2="1003" y2="199" stroke="rgba(20,184,166,0.11)" stroke-width="1.5"/><line x1="898" y1="213" x2="1042" y2="235" stroke="rgba(20,184,166,0.19)" stroke-width="1.5"/><line x1="898" y1="213" x2="895" y2="107" stroke="rgba(20,184,166,0.15)" stroke-width="1.5"/><line x1="898" y1="213" x2="1003" y2="199" stroke="rgba(20,184,166,0.12)" stroke-width="1.5"/><line x1="1042" y1="235" x2="1003" y2="199" stroke="rgba(20,184,166,0.13)" stroke-width="1.5"/><line x1="734" y1="323" x2="584" y2="399" stroke="rgba(20,184,166,0.22)" stroke-width="1.5"/><line x1="895" y1="107" x2="1003" y2="199" stroke="rgba(20,184,166,0.13)" stroke-width="1.5"/><line x1="584" y1="399" x2="454" y2="381" stroke="rgba(20,184,166,0.15)" stroke-width="1.5"/><circle cx="292" cy="213" r="3.4" fill="rgba(20,184,166,0.27)"/><circle cx="601" cy="187" r="3.7" fill="rgba(20,184,166,0.27)"/><circle cx="154" cy="216" r="2.3" fill="rgba(20,184,166,0.28)"/><circle cx="1034" cy="212" r="3.0" fill="rgba(20,184,166,0.40)"/><circle cx="898" cy="213" r="3.5" fill="rgba(20,184,166,0.22)"/><circle cx="1042" cy="235" r="2.2" fill="rgba(20,184,166,0.25)"/><circle cx="734" cy="323" r="1.6" fill="rgba(20,184,166,0.32)"/><circle cx="895" cy="107" r="3.7" fill="rgba(20,184,166,0.43)"/><circle cx="584" cy="399" r="3.5" fill="rgba(20,184,166,0.37)"/><circle cx="454" cy="381" r="1.7" fill="rgba(20,184,166,0.38)"/><circle cx="1003" cy="199" r="3.4" fill="rgba(20,184,166,0.43)"/></g>
  <line x1="94" y1="552" x2="190" y2="552" stroke="#14b8a6" stroke-width="3"/>
  <text x="206" y="562" font-family="Sora, system-ui, sans-serif" font-size="30" font-weight="600" letter-spacing="7" fill="#f9fafb">PRIVACY</text>
  <circle cx="1124" cy="76" r="5" fill="#14b8a6"/>
</svg>
