<svg xmlns="http://www.w3.org/2000/svg" viewBox="0 0 1200 630" width="1200" height="630">
  <rect width="1200" height="630" fill="#0d1117"/>
  <rect x="0" y="0" width="1200" height="630" fill="#151b23" opacity="0.55"/>
  <g><line x1="725" y1="332" x2="671" y2="491" stroke="rgba(20,184,166,0.24)" stroke-width="1.5"/><line x1="912" y1="204" x2="953" y2="282" stroke="rgba(20,184,166,0.17)" stroke-width="1.5"/><line x1="912" y1="204" x2="908" y2="308" stroke="rgba(20,184,166,0.16)" stroke-width="1.5"/><line x1="912" y1="204" x2="928" y2="286" stroke="rgba(20,184,166,0.12)" stroke-width="1.5"/><line x1="1087" y1="306" x2="953" y2="282" stroke="rgba(20,184,166,0.10)" stroke-width="1.5"/><line x1="1087" y1="306" x2="1100" y2="205" stroke="rgba(20,184,166,0.22)" stroke-width="1.5"/><line x1="1087" y1="306" x2="928" y2="286" stroke="rgba(20,184,166,0.13)" stroke-width="1.5"/><line x1="953" y1="282" x2="1100" y2="205" stroke="rgba(20,184,166,0.16)" stroke-width="1.5"/><line x1="953" y1="282" x2="908" y2="308" stroke="rgba(20,184,166,0.10)" stroke-width="1.5"/><line x1="953" y1="282" x2="928" y2="286" stroke="rgba(20,184,166,0.18)" stroke-width="1.5"/><line x1="908" y1="308" x2="928" y2="286" stroke="rgba(20,184,166,0.13)" stroke-width="1.5"/><circle cx="471" cy="154" r="3.1" fill="rgba(20,184,166,0.34)"/><circle cx="725" cy="332" r="2.7" fill="rgba(20,184,166,0.32)"/><circle cx="671" cy="491" r="3.4" fill="rgba(20,184,166,0.26)"/><circle cx="912" cy="204" r="1.8" fill="rgba(20,184,166,0.37)"/><circle cx="1087" cy="306" r="3.3" fill="rgba(20,184,166,0.31)"/><circle cx="229" cy="493" r="3.6" fill="rgba(20,184,166,0.33)"/><circle cx="953" cy="282" r="2.2" fill="rgba(20,184,166,0.29)"/><circle cx="1100" cy="205" r="1.9" fill="rgba(20,184,166,0.32)"/><circle cx="1104" cy="507" r="1.6" fill="rgba(20,184,166,0.27)"/><circle cx="908" cy="308" r="2.5" fill="rgba(20,184,166,0.39)"/><circle cx="928" cy="286" r="1.8" fill="rgba(20,184,166,0.31)"/></g>
  <line x1="64" y1="552" x2="160" y2="552" stroke="#14b8a6" stroke-width="3"/>
  <text x="176" y="562" font-family="Sora, system-ui, sans-serif" font-size="30" font-weight="600" letter-spacing="7" fill="#f9fafb">MODEL-SIZE</text>
  <circle cx="1124" cy="76" r="5" fill="#14b8a6"/>
</svg>
