<svg xmlns="http://www.w3.org/2000/svg" viewBox="0 0 1200 630" width="1200" height="630">
  <rect width="1200" height="630" fill="#0d1117"/>
  <rect x="0" y="0" width="1200" height="630" fill="#151b23" opacity="0.55"/>
  <g><line x1="383" y1="510" x2="445" y2="423" stroke="rgba(20,184,166,0.13)" stroke-width="1.5"/><line x1="383" y1="510" x2="363" y2="444" stroke="rgba(20,184,166,0.20)" stroke-width="1.5"/><line x1="383" y1="510" x2="229" y2="456" stroke="rgba(20,184,166,0.14)" stroke-width="1.5"/><line x1="445" y1="423" x2="363" y2="444" stroke="rgba(20,184,166,0.22)" stroke-width="1.5"/><line x1="445" y1="423" x2="609" y2="458" stroke="rgba(20,184,166,0.18)" stroke-width="1.5"/><line x1="363" y1="444" x2="229" y2="456" stroke="rgba(20,184,166,0.14)" stroke-width="1.5"/><line x1="120" y1="270" x2="178" y2="369" stroke="rgba(20,184,166,0.11)" stroke-width="1.5"/><line x1="229" y1="456" x2="178" y2="369" stroke="rgba(20,184,166,0.18)" stroke-width="1.5"/><line x1="632" y1="374" x2="609" y2="458" stroke="rgba(20,184,166,0.21)" stroke-width="1.5"/><line x1="632" y1="374" x2="661" y2="383" stroke="rgba(20,184,166,0.16)" stroke-width="1.5"/><line x1="632" y1="374" x2="645" y2="495" stroke="rgba(20,184,166,0.13)" stroke-width="1.5"/><line x1="609" y1="458" x2="661" y2="383" stroke="rgba(20,184,166,0.20)" stroke-width="1.5"/><line x1="609" y1="458" x2="645" y2="495" stroke="rgba(20,184,166,0.18)" stroke-width="1.5"/><line x1="661" y1="383" x2="645" y2="495" stroke="rgba(20,184,166,0.12)" stroke-width="1.5"/><circle cx="383" cy="510" r="1.8" fill="rgba(20,184,166,0.39)"/><circle cx="806" cy="216" r="2.4" fill="rgba(20,184,166,0.26)"/><circle cx="445" cy="423" r="2.2" fill="rgba(20,184,166,0.44)"/><circle cx="363" cy="444" r="3.4" fill="rgba(20,184,166,0.26)"/><circle cx="120" cy="270" r="3.0" fill="rgba(20,184,166,0.25)"/><circle cx="229" cy="456" r="3.4" fill="rgba(20,184,166,0.45)"/><circle cx="632" cy="374" r="3.6" fill="rgba(20,184,166,0.24)"/><circle cx="609" cy="458" r="3.1" fill="rgba(20,184,166,0.26)"/><circle cx="178" cy="369" r="2.4" fill="rgba(20,184,166,0.39)"/><circle cx="661" cy="383" r="2.9" fill="rgba(20,184,166,0.39)"/><circle cx="645" cy="495" r="3.6" fill="rgba(20,184,166,0.27)"/></g>
  <line x1="94" y1="552" x2="190" y2="552" stroke="#14b8a6" stroke-width="3"/>
  <text x="206" y="562" font-family="Sora, system-ui, sans-serif" font-size="30" font-weight="600" letter-spacing="7" fill="#f9fafb">OFFLINE-FIRST</text>
  <circle cx="1124" cy="76" r="5" fill="#14b8a6"/>
</svg>
