<svg xmlns="http://www.w3.org/2000/svg" viewBox="0 0 1200 630" width="1200" height="630">
  <rect width="1200" height="630" fill="#0d1117"/>
  <rect x="0" y="0" width="1200" height="630" fill="#151b23" opacity="0.55"/>
  <g><line x1="514" y1="160" x2="364" y2="182" stroke="rgba(20,184,166,0.19)" stroke-width="1.5"/><line x1="514" y1="160" x2="553" y2="260" stroke="rgba(20,184,166,0.13)" stroke-width="1.5"/><line x1="364" y1="182" x2="283" y2="94" stroke="rgba(20,184,166,0.21)" stroke-width="1.5"/><line x1="364" y1="182" x2="258" y2="92" stroke="rgba(20,184,166,0.14)" stroke-width="1.5"/><line x1="283" y1="94" x2="258" y2="92" stroke="rgba(20,184,166,0.18)" stroke-width="1.5"/><line x1="757" y1="75" x2="768" y2="212" stroke="rgba(20,184,166,0.21)" stroke-width="1.5"/><line x1="757" y1="75" x2="748" y2="145" stroke="rgba(20,184,166,0.22)" stroke-width="1.5"/><line x1="768" y1="212" x2="748" y2="145" stroke="rgba(20,184,166,0.20)" stroke-width="1.5"/><line x1="553" y1="260" x2="668" y2="359" stroke="rgba(20,184,166,0.14)" stroke-width="1.5"/><circle cx="514" cy="160" r="2.9" fill="rgba(20,184,166,0.32)"/><circle cx="364" cy="182" r="1.7" fill="rgba(20,184,166,0.25)"/><circle cx="987" cy="156" r="3.3" fill="rgba(20,184,166,0.31)"/><circle cx="283" cy="94" r="3.2" fill="rgba(20,184,166,0.32)"/><circle cx="757" cy="75" r="3.6" fill="rgba(20,184,166,0.36)"/><circle cx="768" cy="212" r="2.6" fill="rgba(20,184,166,0.40)"/><circle cx="84" cy="86" r="2.6" fill="rgba(20,184,166,0.22)"/><circle cx="553" cy="260" r="3.4" fill="rgba(20,184,166,0.40)"/><circle cx="748" cy="145" r="2.2" fill="rgba(20,184,166,0.34)"/><circle cx="668" cy="359" r="2.5" fill="rgba(20,184,166,0.23)"/><circle cx="258" cy="92" r="1.8" fill="rgba(20,184,166,0.43)"/></g>
  <line x1="75" y1="552" x2="171" y2="552" stroke="#14b8a6" stroke-width="3"/>
  <text x="187" y="562" font-family="Sora, system-ui, sans-serif" font-size="30" font-weight="600" letter-spacing="7" fill="#f9fafb">PRIVACY</text>
  <circle cx="1124" cy="76" r="5" fill="#14b8a6"/>
</svg>
