<svg xmlns="http://www.w3.org/2000/svg" viewBox="0 0 1200 630" width="1200" height="630">
  <rect width="1200" height="630" fill="#0d1117"/>
  <rect x="0" y="0" width="1200" height="630" fill="#151b23" opacity="0.55"/>
  <g><line x1="526" y1="236" x2="564" y2="151" stroke="rgba(20,184,166,0.18)" stroke-width="1.5"/><line x1="151" y1="337" x2="227" y2="406" stroke="rgba(20,184,166,0.13)" stroke-width="1.5"/><line x1="1062" y1="260" x2="1095" y2="273" stroke="rgba(20,184,166,0.17)" stroke-width="1.5"/><line x1="1062" y1="260" x2="969" y2="371" stroke="rgba(20,184,166,0.13)" stroke-width="1.5"/><line x1="1062" y1="260" x2="1100" y2="265" stroke="rgba(20,184,166,0.18)" stroke-width="1.5"/><line x1="1062" y1="260" x2="1072" y2="277" stroke="rgba(20,184,166,0.17)" stroke-width="1.5"/><line x1="1095" y1="273" x2="969" y2="371" stroke="rgba(20,184,166,0.13)" stroke-width="1.5"/><line x1="1095" y1="273" x2="1100" y2="265" stroke="rgba(20,184,166,0.16)" stroke-width="1.5"/><line x1="1095" y1="273" x2="1072" y2="277" stroke="rgba(20,184,166,0.20)" stroke-width="1.5"/><line x1="969" y1="371" x2="1100" y2="265" stroke="rgba(20,184,166,0.14)" stroke-width="1.5"/><line x1="969" y1="371" x2="1072" y2="277" stroke="rgba(20,184,166,0.23)" stroke-width="1.5"/><line x1="633" y1="478" x2="509" y2="464" stroke="rgba(20,184,166,0.10)" stroke-width="1.5"/><line x1="1100" y1="265" x2="1072" y2="277" stroke="rgba(20,184,166,0.13)" stroke-width="1.5"/><circle cx="526" cy="236" r="1.8" fill="rgba(20,184,166,0.32)"/><circle cx="151" cy="337" r="1.8" fill="rgba(20,184,166,0.42)"/><circle cx="564" cy="151" r="2.4" fill="rgba(20,184,166,0.39)"/><circle cx="1062" cy="260" r="3.4" fill="rgba(20,184,166,0.26)"/><circle cx="227" cy="406" r="2.6" fill="rgba(20,184,166,0.46)"/><circle cx="1095" cy="273" r="3.4" fill="rgba(20,184,166,0.24)"/><circle cx="969" cy="371" r="2.9" fill="rgba(20,184,166,0.37)"/><circle cx="633" cy="478" r="3.1" fill="rgba(20,184,166,0.43)"/><circle cx="1100" cy="265" r="3.3" fill="rgba(20,184,166,0.26)"/><circle cx="1072" cy="277" r="1.5" fill="rgba(20,184,166,0.27)"/><circle cx="509" cy="464" r="2.7" fill="rgba(20,184,166,0.36)"/></g>
  <line x1="68" y1="552" x2="164" y2="552" stroke="#14b8a6" stroke-width="3"/>
  <text x="180" y="562" font-family="Sora, system-ui, sans-serif" font-size="30" font-weight="600" letter-spacing="7" fill="#f9fafb">SESSION</text>
  <circle cx="1124" cy="76" r="5" fill="#14b8a6"/>
</svg>
