<svg xmlns="http://www.w3.org/2000/svg" viewBox="0 0 1200 630" width="1200" height="630"><rect width="1200" height="630" fill="#5aaaf5"/><g transform="translate(192 43) scale(1.7)"><rect x="59" y="277.5" width="28.9" height="14.5" rx="4" fill="#0d1210" opacity="0.88"/><rect x="93.9" y="275.7" width="28.9" height="16.3" rx="4" fill="#0d1210" opacity="0.88"/><rect x="128.8" y="267.3" width="28.9" height="24.7" rx="4" fill="#0d1210" opacity="0.88"/><rect x="163.7" y="257.2" width="28.9" height="34.8" rx="4" fill="#0d1210" opacity="0.88"/><rect x="198.6" y="244.2" width="28.9" height="47.8" rx="4" fill="#0d1210" opacity="0.88"/><rect x="233.5" y="236.6" width="28.9" height="55.4" rx="4" fill="#0d1210" opacity="0.88"/><rect x="268.5" y="248.4" width="28.9" height="43.6" rx="4" fill="#0d1210" opacity="0.88"/><rect x="303.4" y="260.4" width="28.9" height="31.6" rx="4" fill="#0d1210" opacity="0.88"/><rect x="338.3" y="269.8" width="28.9" height="22.2" rx="4" fill="#0d1210" opacity="0.88"/><rect x="373.2" y="274.8" width="28.9" height="17.2" rx="4" fill="#0d1210" opacity="0.88"/><rect x="408.1" y="277.4" width="28.9" height="14.6" rx="4" fill="#0d1210" opacity="0.88"/><line x1="235.6" y1="179.1" x2="235.6" y2="160.5" stroke="#0d1210" stroke-width="1.6" opacity="0.5"/><circle cx="235.6" cy="179.1" r="6" fill="#0d1210" /><circle cx="240.7" cy="184.9" r="6" fill="#f3f5f2" stroke="#0d1210" stroke-width="2"/><circle cx="411.7" cy="164.5" r="6" fill="#0d1210" /><line x1="389.7" y1="151" x2="389.7" y2="158.5" stroke="#0d1210" stroke-width="1.6" opacity="0.5"/><circle cx="389.7" cy="151" r="6" fill="#f3f5f2" stroke="#0d1210" stroke-width="2"/><circle cx="97.8" cy="158.6" r="6" fill="#0d1210" /><circle cx="199.3" cy="132.7" r="6" fill="#f3f5f2" stroke="#0d1210" stroke-width="2"/><line x1="284.7" y1="162.5" x2="284.7" y2="159.9" stroke="#0d1210" stroke-width="1.6" opacity="0.5"/><circle cx="284.7" cy="162.5" r="6" fill="#0d1210" /><circle cx="415.8" cy="163.7" r="6" fill="#f3f5f2" stroke="#0d1210" stroke-width="2"/><circle cx="381" cy="166.1" r="6" fill="#0d1210" /><line x1="181.5" y1="163.3" x2="181.5" y2="161.2" stroke="#0d1210" stroke-width="1.6" opacity="0.5"/><circle cx="181.5" cy="163.3" r="6" fill="#f3f5f2" stroke="#0d1210" stroke-width="2"/><circle cx="313.8" cy="172.9" r="6" fill="#0d1210" /><circle cx="144.9" cy="158.7" r="6" fill="#f3f5f2" stroke="#0d1210" stroke-width="2"/><line x1="135.7" y1="153.5" x2="135.7" y2="161.9" stroke="#0d1210" stroke-width="1.6" opacity="0.5"/><circle cx="135.7" cy="153.5" r="6" fill="#0d1210" /><circle cx="108.6" cy="188.4" r="6" fill="#f3f5f2" stroke="#0d1210" stroke-width="2"/><circle cx="114.1" cy="154" r="6" fill="#0d1210" /><line x1="403.1" y1="170" x2="403.1" y2="158.3" stroke="#0d1210" stroke-width="1.6" opacity="0.5"/><circle cx="403.1" cy="170" r="6" fill="#f3f5f2" stroke="#0d1210" stroke-width="2"/><circle cx="196.3" cy="158.2" r="6" fill="#0d1210" /><circle cx="131.4" cy="71.9" r="8" fill="#ff6b4a" /><line x1="96.4" y1="186.1" x2="96.4" y2="162.4" stroke="#0d1210" stroke-width="1.6" opacity="0.5"/><circle cx="96.4" cy="186.1" r="6" fill="#0d1210" /><circle cx="182.4" cy="173.5" r="6" fill="#f3f5f2" stroke="#0d1210" stroke-width="2"/><circle cx="89.3" cy="142.1" r="6" fill="#0d1210" /><line x1="179.6" y1="157.8" x2="179.6" y2="161.3" stroke="#0d1210" stroke-width="1.6" opacity="0.5"/><circle cx="179.6" cy="157.8" r="6" fill="#f3f5f2" stroke="#0d1210" stroke-width="2"/><circle cx="291.5" cy="175.3" r="6" fill="#0d1210" /><circle cx="383.2" cy="141.7" r="6" fill="#f3f5f2" stroke="#0d1210" stroke-width="2"/><line x1="299" y1="188.6" x2="299" y2="159.7" stroke="#0d1210" stroke-width="1.6" opacity="0.5"/><circle cx="299" cy="188.6" r="6" fill="#0d1210" /><circle cx="79.1" cy="160" r="6" fill="#f3f5f2" stroke="#0d1210" stroke-width="2"/><circle cx="159.2" cy="135.9" r="6" fill="#0d1210" /><line x1="139.9" y1="137.6" x2="139.9" y2="161.8" stroke="#0d1210" stroke-width="1.6" opacity="0.5"/><circle cx="139.9" cy="137.6" r="6" fill="#f3f5f2" stroke="#0d1210" stroke-width="2"/><circle cx="94.3" cy="130.6" r="6" fill="#0d1210" /><circle cx="333.5" cy="177.8" r="6" fill="#f3f5f2" stroke="#0d1210" stroke-width="2"/><line x1="211.9" y1="186.8" x2="211.9" y2="160.8" stroke="#0d1210" stroke-width="1.6" opacity="0.5"/><circle cx="211.9" cy="186.8" r="6" fill="#0d1210" /><circle cx="284.4" cy="128.8" r="6" fill="#f3f5f2" stroke="#0d1210" stroke-width="2"/><circle cx="149.1" cy="159.5" r="6" fill="#0d1210" /><line x1="409.1" y1="174.6" x2="409.1" y2="158.2" stroke="#0d1210" stroke-width="1.6" opacity="0.5"/><circle cx="409.1" cy="174.6" r="6" fill="#f3f5f2" stroke="#0d1210" stroke-width="2"/><line pathLength="1" x1="56" y1="162.9" x2="440" y2="157.8" stroke="#0d1210" stroke-width="5" stroke-linecap="round"/></g></svg>
