<svg xmlns="http://www.w3.org/2000/svg" viewBox="0 0 1200 630" width="1200" height="630"><rect width="1200" height="630" fill="#5aaaf5"/><g transform="translate(192 43) scale(1.7)"><rect x="59" y="277.3" width="28.9" height="14.7" rx="4" fill="#0d1210" opacity="0.88"/><rect x="93.9" y="275.3" width="28.9" height="16.7" rx="4" fill="#0d1210" opacity="0.88"/><rect x="128.8" y="270.1" width="28.9" height="21.9" rx="4" fill="#0d1210" opacity="0.88"/><rect x="163.7" y="252.7" width="28.9" height="39.3" rx="4" fill="#0d1210" opacity="0.88"/><rect x="198.6" y="244" width="28.9" height="48" rx="4" fill="#0d1210" opacity="0.88"/><rect x="233.5" y="233.3" width="28.9" height="58.7" rx="4" fill="#0d1210" opacity="0.88"/><rect x="268.5" y="237.1" width="28.9" height="54.9" rx="4" fill="#0d1210" opacity="0.88"/><rect x="303.4" y="257.9" width="28.9" height="34.1" rx="4" fill="#0d1210" opacity="0.88"/><rect x="338.3" y="269.5" width="28.9" height="22.5" rx="4" fill="#0d1210" opacity="0.88"/><rect x="373.2" y="275.7" width="28.9" height="16.3" rx="4" fill="#0d1210" opacity="0.88"/><rect x="408.1" y="277.5" width="28.9" height="14.5" rx="4" fill="#0d1210" opacity="0.88"/><line x1="343.3" y1="140.2" x2="343.3" y2="131.3" stroke="#0d1210" stroke-width="1.6" opacity="0.5"/><circle cx="343.3" cy="140.2" r="6" fill="#0d1210" /><circle cx="261" cy="138" r="6" fill="#f3f5f2" stroke="#0d1210" stroke-width="2"/><circle cx="163.9" cy="199.1" r="6" fill="#0d1210" /><line x1="356.6" y1="106.6" x2="356.6" y2="127.6" stroke="#0d1210" stroke-width="1.6" opacity="0.5"/><circle cx="356.6" cy="106.6" r="6" fill="#f3f5f2" stroke="#0d1210" stroke-width="2"/><circle cx="278.4" cy="129.4" r="6" fill="#0d1210" /><circle cx="219.6" cy="210" r="8" fill="#ff6b4a" /><line x1="286" y1="185.3" x2="286" y2="147" stroke="#0d1210" stroke-width="1.6" opacity="0.5"/><circle cx="286" cy="185.3" r="6" fill="#0d1210" /><circle cx="406.2" cy="110.2" r="6" fill="#f3f5f2" stroke="#0d1210" stroke-width="2"/><circle cx="389.8" cy="152.8" r="6" fill="#0d1210" /><line x1="208" y1="161" x2="208" y2="168.5" stroke="#0d1210" stroke-width="1.6" opacity="0.5"/><circle cx="208" cy="161" r="6" fill="#f3f5f2" stroke="#0d1210" stroke-width="2"/><circle cx="336.6" cy="162.9" r="6" fill="#0d1210" /><circle cx="321.2" cy="138.2" r="6" fill="#f3f5f2" stroke="#0d1210" stroke-width="2"/><line x1="177.3" y1="180.3" x2="177.3" y2="177" stroke="#0d1210" stroke-width="1.6" opacity="0.5"/><circle cx="177.3" cy="180.3" r="6" fill="#0d1210" /><circle cx="342.3" cy="139.1" r="6" fill="#f3f5f2" stroke="#0d1210" stroke-width="2"/><circle cx="328.5" cy="122.4" r="6" fill="#0d1210" /><line x1="108.3" y1="206.1" x2="108.3" y2="196" stroke="#0d1210" stroke-width="1.6" opacity="0.5"/><circle cx="108.3" cy="206.1" r="6" fill="#f3f5f2" stroke="#0d1210" stroke-width="2"/><circle cx="410.7" cy="104" r="6" fill="#0d1210" /><circle cx="114.8" cy="195" r="6" fill="#f3f5f2" stroke="#0d1210" stroke-width="2"/><line x1="197.8" y1="184" x2="197.8" y2="171.3" stroke="#0d1210" stroke-width="1.6" opacity="0.5"/><circle cx="197.8" cy="184" r="6" fill="#0d1210" /><circle cx="389.1" cy="144.5" r="6" fill="#f3f5f2" stroke="#0d1210" stroke-width="2"/><circle cx="206.2" cy="138.2" r="6" fill="#0d1210" /><line x1="342.5" y1="150.3" x2="342.5" y2="131.5" stroke="#0d1210" stroke-width="1.6" opacity="0.5"/><circle cx="342.5" cy="150.3" r="6" fill="#f3f5f2" stroke="#0d1210" stroke-width="2"/><circle cx="305.8" cy="128.1" r="6" fill="#0d1210" /><circle cx="236" cy="195.8" r="6" fill="#f3f5f2" stroke="#0d1210" stroke-width="2"/><line x1="99.7" y1="167.9" x2="99.7" y2="198.3" stroke="#0d1210" stroke-width="1.6" opacity="0.5"/><circle cx="99.7" cy="167.9" r="6" fill="#0d1210" /><circle cx="322.8" cy="168.6" r="6" fill="#f3f5f2" stroke="#0d1210" stroke-width="2"/><circle cx="72.4" cy="211.2" r="6" fill="#0d1210" /><line x1="166.2" y1="144.6" x2="166.2" y2="180" stroke="#0d1210" stroke-width="1.6" opacity="0.5"/><circle cx="166.2" cy="144.6" r="6" fill="#f3f5f2" stroke="#0d1210" stroke-width="2"/><circle cx="131.8" cy="172.6" r="6" fill="#0d1210" /><circle cx="177.2" cy="153" r="6" fill="#f3f5f2" stroke="#0d1210" stroke-width="2"/><line x1="115.5" y1="203" x2="115.5" y2="194" stroke="#0d1210" stroke-width="1.6" opacity="0.5"/><circle cx="115.5" cy="203" r="6" fill="#0d1210" /><circle cx="162.9" cy="143.9" r="6" fill="#f3f5f2" stroke="#0d1210" stroke-width="2"/><circle cx="227.4" cy="165.4" r="6" fill="#0d1210" /><line x1="336.8" y1="139" x2="336.8" y2="133.1" stroke="#0d1210" stroke-width="1.6" opacity="0.5"/><circle cx="336.8" cy="139" r="6" fill="#f3f5f2" stroke="#0d1210" stroke-width="2"/><line pathLength="1" x1="56" y1="210.4" x2="440" y2="104.6" stroke="#0d1210" stroke-width="5" stroke-linecap="round"/></g></svg>
